HIERARCHY
ROOT joint_Root
{
	OFFSET 0.0 0.0 0.0
	CHANNELS 6 Xposition Yposition Zposition Zrotation Xrotation Yrotation 
	JOINT Hips
	{
		OFFSET 4.5925 91.4895 -427.239
		CHANNELS 6 Xposition Yposition Zposition Zrotation Xrotation Yrotation 
		JOINT Spine
		{
			OFFSET 15.7357 0.0 0.0
			CHANNELS 6 Xposition Yposition Zposition Zrotation Xrotation Yrotation 
			JOINT Chest
			{
				OFFSET 8.98455 -0.406207 0.0
				CHANNELS 6 Xposition Yposition Zposition Zrotation Xrotation Yrotation 
				JOINT Neck
				{
					OFFSET 16.3773 0.0 0.0
					CHANNELS 6 Xposition Yposition Zposition Zrotation Xrotation Yrotation 
					JOINT Head
					{
						OFFSET 6.45672 0.0 0.0
						CHANNELS 6 Xposition Yposition Zposition Zrotation Xrotation Yrotation 
						End Site
						{
							OFFSET 0.0 0.0 0.0
						}
					}
				}
				JOINT Shoulder_L
				{
					OFFSET 12.9942 -0.242716 4.98039
					CHANNELS 6 Xposition Yposition Zposition Zrotation Xrotation Yrotation 
					JOINT UpperArm_L
					{
						OFFSET 5.34809 0.0 0.0
						CHANNELS 6 Xposition Yposition Zposition Zrotation Xrotation Yrotation 
						JOINT LowerArm_L
						{
							OFFSET 24.3286 1.87007e-05 0.0
							CHANNELS 6 Xposition Yposition Zposition Zrotation Xrotation Yrotation 
							JOINT Hand_L
							{
								OFFSET 22.2916 0.0 0.0
								CHANNELS 6 Xposition Yposition Zposition Zrotation Xrotation Yrotation 
								End Site
								{
									OFFSET 0.0 0.0 0.0
								}
							}
						}
					}
				}
				JOINT Shoulder_R
				{
					OFFSET 12.9945 -0.242716 -4.98039
					CHANNELS 6 Xposition Yposition Zposition Zrotation Xrotation Yrotation 
					JOINT UpperArm_R
					{
						OFFSET -5.34813 0.0 0.0
						CHANNELS 6 Xposition Yposition Zposition Zrotation Xrotation Yrotation 
						JOINT LowerArm_R
						{
							OFFSET -24.3289 0.000322201 0.0
							CHANNELS 6 Xposition Yposition Zposition Zrotation Xrotation Yrotation 
							JOINT Hand_R
							{
								OFFSET -22.2915 -0.000108084 0.0
								CHANNELS 6 Xposition Yposition Zposition Zrotation Xrotation Yrotation 
								End Site
								{
									OFFSET 0.0 0.0 0.0
								}
							}
						}
					}
				}
			}
		}
		JOINT UpperLeg_L
		{
			OFFSET -2.19248 -6.46944 0.0
			CHANNELS 6 Xposition Yposition Zposition Zrotation Xrotation Yrotation 
			JOINT LowerLeg_L
			{
				OFFSET 39.0811 0.0 -1.23785e-05
				CHANNELS 6 Xposition Yposition Zposition Zrotation Xrotation Yrotation 
				JOINT Foot_L
				{
					OFFSET 40.9854 0.0 -1.26872e-05
					CHANNELS 6 Xposition Yposition Zposition Zrotation Xrotation Yrotation 
					JOINT Toes_L
					{
						OFFSET 11.7543 0.0 0.0
						CHANNELS 6 Xposition Yposition Zposition Zrotation Xrotation Yrotation 
						End Site
						{
							OFFSET 0.0 0.0 0.0
						}
					}
				}
			}
		}
		JOINT UpperLeg_R
		{
			OFFSET -2.19251 6.46944 0.0
			CHANNELS 6 Xposition Yposition Zposition Zrotation Xrotation Yrotation 
			JOINT LowerLeg_R
			{
				OFFSET -39.0811 -0.00228153 -0.0401928
				CHANNELS 6 Xposition Yposition Zposition Zrotation Xrotation Yrotation 
				JOINT Foot_R
				{
					OFFSET -40.9854 0.0 0.0
					CHANNELS 6 Xposition Yposition Zposition Zrotation Xrotation Yrotation 
					JOINT Toes_R
					{
						OFFSET -11.7543 0.0 0.0
						CHANNELS 6 Xposition Yposition Zposition Zrotation Xrotation Yrotation 
						End Site
						{
							OFFSET 0.0 0.0 0.0
						}
					}
				}
			}
		}
	}
}
MOTION
Frames:	8
Frame Time:	0.0333333
0.000000 0.000000 0.000000 0.000000 0.000000 -0.000000 -1.766980 90.502900 -0.371443 89.968400 -2.572980 11.657200 15.735700 0.000005 -0.000001 86.827400 79.194800 -87.397300 8.984550 -0.406207 -0.000000 13.807600 -1.212520 -0.993277 16.377300 -0.000001 -0.000001 9.609510 -3.847680 2.265670 6.456720 -0.000001 -0.000000 -1.439720 -3.287960 1.355110 12.994200 -0.242716 4.980390 -91.246100 5.892800 -78.037400 5.348090 -0.000007 -0.000001 -59.389200 37.418100 -24.322700 24.328600 0.000019 0.000005 9.812660 23.472000 -23.472400 22.291600 -0.000001 0.000005 11.508400 5.289160 0.374497 12.994500 -0.242716 -4.980390 89.097700 10.821400 -85.204800 -5.348130 -0.000001 -0.000004 -61.306600 34.254800 -18.490200 -24.328900 0.000322 -0.000009 2.680050 6.660350 -21.986300 -22.291500 -0.000108 -0.000004 14.630000 5.424380 -3.747320 -2.192480 -6.469440 -0.000000 -174.420000 -12.764600 0.309809 39.081100 -0.000007 -0.000012 -0.205765 0.325626 32.289400 40.985400 -0.000006 -0.000013 0.282233 5.908840 -70.598300 11.754300 -0.000000 0.000003 -0.000185 -0.001735 -16.643100 -2.192510 6.469440 -0.000001 173.685000 20.385500 -177.919000 -39.081100 -0.002282 -0.040193 -0.236722 0.385973 31.876000 -40.985400 0.000008 0.000006 4.712750 14.201800 -72.148500 -11.754300 -0.000006 -0.000006 -0.002189 -0.031058 -17.836000
0.000000 0.000000 0.000000 0.000000 0.000000 -0.000000 -1.771410 90.502500 -0.347003 89.975900 -2.516340 11.661900 15.735700 0.000005 -0.000001 86.718200 79.184100 -87.296600 8.984550 -0.406207 -0.000000 13.826500 -1.254870 -1.004850 16.377300 -0.000001 -0.000001 9.590700 -3.815720 2.292650 6.456720 -0.000001 -0.000000 -1.498830 -3.202400 1.367340 12.994200 -0.242716 4.980390 -91.228600 5.814510 -78.047100 5.348090 -0.000007 -0.000001 -59.817900 36.563600 -23.747300 24.328600 0.000019 0.000005 10.287800 22.811600 -25.087600 22.291600 -0.000001 0.000005 11.633100 5.293500 0.253836 12.994500 -0.242716 -4.980390 89.077400 10.804300 -85.089900 -5.348130 -0.000001 -0.000004 -61.306100 33.957300 -18.413700 -24.328900 0.000322 -0.000009 2.825390 6.638890 -23.124600 -22.291500 -0.000108 -0.000004 14.676600 5.424950 -3.766540 -2.192480 -6.469440 -0.000000 -174.429000 -12.721000 0.317428 39.081100 -0.000007 -0.000012 -0.206290 0.326535 32.283200 40.985400 -0.000006 -0.000013 0.281659 5.927910 -70.598600 11.754300 -0.000000 0.000003 -0.000209 -0.001918 -16.649800 -2.192510 6.469440 -0.000001 173.668000 20.415800 -177.884000 -39.081100 -0.002282 -0.040193 -0.236136 0.385150 31.868000 -40.985400 0.000008 0.000006 4.703470 14.168900 -72.163300 -11.754300 -0.000006 -0.000006 -0.002181 -0.030960 -17.832000
0.000000 0.000000 0.000000 0.000000 0.000000 -0.000000 -1.769250 90.499100 -0.336381 89.987800 -2.492640 11.625200 15.735700 0.000005 -0.000001 86.697900 79.184500 -87.285000 8.984550 -0.406207 -0.000000 13.825100 -1.262850 -1.021440 16.377300 -0.000001 -0.000001 9.576890 -3.796520 2.317340 6.456720 -0.000001 -0.000000 -1.519550 -3.132840 1.376560 12.994200 -0.242716 4.980390 -91.216800 5.730750 -77.991200 5.348090 -0.000007 -0.000001 -60.013600 35.763200 -23.484200 24.328600 0.000019 0.000005 10.953800 22.302200 -27.021900 22.291600 -0.000001 0.000005 11.751500 5.297150 0.152189 12.994500 -0.242716 -4.980390 89.050800 10.794600 -84.944700 -5.348130 -0.000001 -0.000004 -61.266700 33.487700 -18.348600 -24.328900 0.000322 -0.000009 2.902740 6.341060 -24.668200 -22.291500 -0.000108 -0.000004 14.843800 5.429980 -3.938390 -2.192480 -6.469440 -0.000000 -174.468000 -12.671200 0.282453 39.081100 -0.000007 -0.000012 -0.207344 0.328111 32.290400 40.985400 -0.000006 -0.000013 0.271374 5.875380 -70.613100 11.754300 -0.000000 0.000003 -0.000194 -0.001802 -16.645600 -2.192510 6.469440 -0.000001 173.662000 20.434800 -177.921000 -39.081100 -0.002282 -0.040193 -0.235587 0.383980 31.887200 -40.985400 0.000008 0.000006 4.702390 14.163200 -72.182600 -11.754300 -0.000006 -0.000006 -0.002307 -0.032492 -17.894300
0.000000 0.000000 0.000000 0.000000 0.000000 -0.000000 -1.773510 90.498600 -0.335871 89.983600 -2.440920 11.602500 15.735700 0.000005 -0.000001 86.672300 79.194400 -87.257900 8.984550 -0.406207 -0.000000 13.804900 -1.271110 -1.017570 16.377300 -0.000001 -0.000001 9.618980 -3.803290 2.331660 6.456720 -0.000001 -0.000000 -1.486950 -3.126320 1.363730 12.994200 -0.242716 4.980390 -91.208500 5.635700 -77.876500 5.348090 -0.000007 -0.000001 -60.077900 34.914900 -23.484300 24.328600 0.000019 0.000005 11.915000 22.115700 -29.269200 22.291600 -0.000001 0.000005 12.010400 5.298350 0.118489 12.994500 -0.242716 -4.980390 89.019100 10.767800 -84.763600 -5.348130 -0.000001 -0.000004 -61.227300 32.845200 -18.256400 -24.328900 0.000322 -0.000009 3.025110 6.053670 -26.623700 -22.291500 -0.000108 -0.000004 15.042900 5.433740 -4.067660 -2.192480 -6.469440 -0.000000 -174.485000 -12.598600 0.233077 39.081100 -0.000007 -0.000012 -0.207622 0.328392 32.303000 40.985400 -0.000006 -0.000013 0.262758 5.856100 -70.605400 11.754300 -0.000000 0.000003 -0.000203 -0.001874 -16.648200 -2.192510 6.469440 -0.000001 173.671000 20.463300 -177.935000 -39.081100 -0.002282 -0.040193 -0.238385 0.388512 31.885000 -40.985400 0.000008 0.000006 4.692780 14.121900 -72.184000 -11.754300 -0.000006 -0.000006 -0.002332 -0.032800 -17.906900
0.000000 0.000000 0.000000 0.000000 0.000000 -0.000000 -1.774010 90.490200 -0.328356 89.984300 -2.414660 11.619000 15.735700 0.000005 -0.000001 86.702700 79.193200 -87.289600 8.984550 -0.406207 -0.000000 13.808000 -1.260010 -1.021570 16.377300 -0.000001 -0.000001 9.705420 -3.840170 2.342980 6.456720 -0.000001 -0.000000 -1.455820 -3.146510 1.362710 12.994200 -0.242716 4.980390 -91.204300 5.563370 -77.765400 5.348090 -0.000007 -0.000001 -60.035000 33.931600 -23.681900 24.328600 0.000019 0.000005 12.878900 21.745700 -31.680400 22.291600 -0.000001 0.000005 12.371400 5.297850 0.132562 12.994500 -0.242716 -4.980390 88.986500 10.746600 -84.580500 -5.348130 -0.000001 -0.000004 -61.093500 32.104400 -18.260600 -24.328900 0.000322 -0.000009 3.247270 5.897690 -28.914200 -22.291500 -0.000108 -0.000004 15.472300 5.435840 -4.140150 -2.192480 -6.469440 -0.000000 -174.502000 -12.518200 0.237202 39.081100 -0.000007 -0.000012 -0.208191 0.328836 32.338800 40.985400 -0.000006 -0.000013 0.248900 5.801690 -70.634300 11.754300 -0.000000 0.000003 -0.000205 -0.001889 -16.648800 -2.192510 6.469440 -0.000001 173.647000 20.511400 -177.919000 -39.081100 -0.002282 -0.040193 -0.238317 0.387849 31.921600 -40.985400 0.000008 0.000006 4.702410 14.138200 -72.214000 -11.754300 -0.000006 -0.000006 -0.002279 -0.032160 -17.880800
0.000000 0.000000 0.000000 0.000000 0.000000 -0.000000 -1.763900 90.492900 -0.327048 89.998400 -2.395180 11.687700 15.735700 0.000005 -0.000001 86.686500 79.178700 -87.274200 8.984550 -0.406207 -0.000000 13.836600 -1.267850 -1.021930 16.377300 -0.000001 -0.000001 9.834440 -3.856590 2.329940 6.456720 -0.000001 -0.000000 -1.433400 -3.172040 1.349760 12.994200 -0.242716 4.980390 -91.220600 5.577920 -77.635800 5.348090 -0.000007 -0.000001 -59.813900 32.789900 -24.086300 24.328600 0.000019 0.000005 13.964800 21.347800 -34.337200 22.291600 -0.000001 0.000005 12.779000 5.293330 0.258436 12.994500 -0.242716 -4.980390 88.963900 10.668400 -84.420300 -5.348130 -0.000001 -0.000004 -60.852000 31.372000 -18.469600 -24.328900 0.000322 -0.000009 3.658230 6.015830 -31.392900 -22.291500 -0.000108 -0.000004 16.005900 5.439300 -4.261330 -2.192480 -6.469440 -0.000000 -174.505000 -12.524200 0.317518 39.081100 -0.000007 -0.000012 -0.208438 0.329515 32.316100 40.985400 -0.000006 -0.000013 0.260744 5.818060 -70.623700 11.754300 -0.000000 0.000003 -0.000190 -0.001770 -16.644400 -2.192510 6.469440 -0.000001 173.591000 20.533300 -177.836000 -39.081100 -0.002282 -0.040193 -0.237856 0.387261 31.911500 -40.985400 0.000008 0.000006 4.704210 14.168900 -72.211700 -11.754300 -0.000006 -0.000006 -0.002262 -0.031950 -17.872300
0.000000 0.000000 0.000000 0.000000 0.000000 -0.000000 -1.768130 90.477000 -0.315291 89.985700 -2.332650 11.758300 15.735700 0.000005 -0.000001 86.593800 79.160200 -87.178700 8.984550 -0.406207 -0.000000 13.871300 -1.304550 -1.011580 16.377300 -0.000001 -0.000001 9.941040 -3.884920 2.336240 6.456720 -0.000001 -0.000000 -1.377600 -3.176360 1.341230 12.994200 -0.242716 4.980390 -91.223000 5.550000 -77.552000 5.348090 -0.000007 -0.000001 -59.546400 31.522100 -24.677700 24.328600 0.000019 0.000005 15.128500 20.894800 -37.162800 22.291600 -0.000001 0.000005 13.286000 5.285950 0.461930 12.994500 -0.242716 -4.980390 88.942000 10.569400 -84.250700 -5.348130 -0.000001 -0.000004 -60.475900 30.654400 -18.911000 -24.328900 0.000322 -0.000009 4.147190 6.179060 -33.971700 -22.291500 -0.000108 -0.000004 16.384200 5.442340 -4.368000 -2.192480 -6.469440 -0.000000 -174.489000 -12.436600 0.352386 39.081100 -0.000007 -0.000012 -0.209954 0.330895 32.395600 40.985400 -0.000006 -0.000013 0.258648 5.812910 -70.672100 11.754300 -0.000000 0.000003 -0.000187 -0.001748 -16.643600 -2.192510 6.469440 -0.000001 173.561000 20.558700 -177.767000 -39.081100 -0.002282 -0.040193 -0.240441 0.390505 31.971200 -40.985400 0.000008 0.000006 4.698190 14.137800 -72.256000 -11.754300 -0.000006 -0.000006 -0.002342 -0.032922 -17.911900
0.000000 0.000000 0.000000 0.000000 0.000000 -0.000000 -1.768830 90.476800 -0.351029 89.987500 -2.265700 11.757200 15.735700 0.000005 -0.000001 86.520700 79.170400 -87.109500 8.984550 -0.406207 -0.000000 13.849400 -1.330760 -1.016430 16.377300 -0.000001 -0.000001 10.095100 -3.923450 2.365610 6.456720 -0.000001 -0.000000 -1.351330 -3.168760 1.313510 12.994200 -0.242716 4.980390 -91.218100 5.498000 -77.487100 5.348090 -0.000007 -0.000001 -59.182600 30.257300 -25.445900 24.328600 0.000019 0.000005 16.442300 20.461600 -40.170800 22.291600 -0.000001 0.000005 13.937000 5.278030 0.679205 12.994500 -0.242716 -4.980390 88.913100 10.482200 -84.046300 -5.348130 -0.000001 -0.000004 -60.043300 29.838700 -19.493400 -24.328900 0.000322 -0.000009 4.829060 6.497010 -36.750200 -22.291500 -0.000108 -0.000004 16.865400 5.443140 -4.396120 -2.192480 -6.469440 -0.000000 -174.508000 -12.402400 0.301517 39.081100 -0.000007 -0.000012 -0.207873 0.327358 32.416000 40.985400 -0.000006 -0.000013 0.266609 5.821360 -70.648500 11.754300 -0.000000 0.000003 -0.000192 -0.001792 -16.645200 -2.192510 6.469440 -0.000001 173.585000 20.564100 -177.806000 -39.081100 -0.002282 -0.040193 -0.237400 0.385330 31.991400 -40.985400 0.000008 0.000006 4.691110 14.068100 -72.238300 -11.754300 -0.000006 -0.000006 -0.002183 -0.030989 -17.833200
